<?xml version="1.0" standalone="no"?><!DOCTYPE svg PUBLIC "-//W3C//DTD SVG 1.1//EN" "http://www.w3.org/Graphics/SVG/1.1/DTD/svg11.dtd"><svg t="1781105891068" class="icon" viewBox="0 0 1024 1024" version="1.1" xmlns="http://www.w3.org/2000/svg" p-id="13712" xmlns:xlink="http://www.w3.org/1999/xlink" width="200" height="200"><path d="M966.4 377.6c-12.8 0-25.6 12.8-25.6 25.6v377.6l-32-12.8c-25.6-12.8-57.6-19.2-83.2-25.6-76.8-12.8-153.6-6.4-217.6 25.6l-96 32-83.2-32c-25.6-12.8-57.6-19.2-83.2-25.6-76.8-12.8-153.6-6.4-217.6 25.6l-38.4 12.8V403.2c0-12.8-12.8-25.6-25.6-25.6s-32 6.4-32 25.6v409.6c0 19.2 19.2 32 38.4 25.6l70.4-25.6c44.8-19.2 89.6-25.6 134.4-25.6s89.6 6.4 134.4 25.6l96 38.4c6.4 6.4 19.2 6.4 25.6 0l96-38.4c44.8-19.2 89.6-25.6 134.4-25.6 44.8 0 89.6 6.4 134.4 25.6l70.4 25.6c19.2 6.4 38.4-6.4 38.4-25.6V403.2c-12.8-19.2-25.6-25.6-38.4-25.6z" p-id="13713" fill="#ef71af"></path><path d="M864 166.4l-57.6-12.8c-38.4-6.4-76.8-12.8-115.2-12.8-51.2 0-102.4 6.4-153.6 25.6l-25.6 6.4-25.6-12.8c-51.2-12.8-102.4-25.6-153.6-25.6-38.4 0-76.8 6.4-115.2 19.2l-57.6 12.8c-12.8 0-25.6 12.8-25.6 25.6v492.8c0 19.2 19.2 32 32 25.6l44.8-12.8c38.4-6.4 76.8-12.8 115.2-12.8 51.2 0 102.4 6.4 153.6 25.6l32 6.4 25.6-6.4c51.2-19.2 102.4-25.6 153.6-25.6 38.4 0 76.8 6.4 115.2 12.8l44.8 12.8c19.2 6.4 32-6.4 32-25.6V192c6.4-12.8-6.4-25.6-19.2-25.6zM332.8 633.6c-44.8 0-89.6 6.4-128 12.8l-12.8 6.4V211.2l38.4-12.8c32-6.4 64-12.8 102.4-12.8 44.8 0 89.6 6.4 134.4 19.2l19.2 6.4v441.6c-51.2-12.8-102.4-19.2-153.6-19.2z m505.6 19.2l-12.8-6.4c-44.8-12.8-83.2-12.8-128-12.8-51.2 0-102.4 6.4-153.6 25.6V217.6l19.2-6.4c44.8-12.8 89.6-19.2 134.4-19.2 32 0 70.4 6.4 102.4 12.8l38.4 12.8v435.2z" p-id="13714" fill="#ef71af"></path></svg>