<?xml version="1.0" standalone="no"?><!DOCTYPE svg PUBLIC "-//W3C//DTD SVG 1.1//EN" "http://www.w3.org/Graphics/SVG/1.1/DTD/svg11.dtd"><svg t="1781106066665" class="icon" viewBox="0 0 1024 1024" version="1.1" xmlns="http://www.w3.org/2000/svg" p-id="20070" xmlns:xlink="http://www.w3.org/1999/xlink" width="200" height="200"><path d="M839.497892 191.018521l-95.092775 0 35.349089-64.748676c10.229992-17.438161 4.1536-39.723723-13.597693-49.79715-17.752316-10.073426-40.448224-4.093225-50.709939 13.345959l-55.249325 101.198843L366.218776 191.017498c-0.823761-3.060709-2.089591-6.068206-3.820002-8.93858l-56.280818-81.021292c-10.261715-17.028838-32.956599-41.10928-50.708915-31.28861-17.754363 9.82067-23.828708 31.571043-13.597693 48.600905l41.195238 72.6486-100.9379 0c-81.895195 0-154.269549 52.947909-154.269549 135.981021l0 474.800773c0 81.133855 73.134671 154.268526 154.269549 154.268526l675.687036 0c83.026972 0 136.01172-72.379471 136.01172-154.268526L993.767442 327.000566C993.766418 243.967454 921.392064 191.019545 839.497892 191.018521L839.497892 191.018521zM930.812621 801.801339c0 46.364981-26.692942 91.314729-73.057923 91.314729L182.067662 893.116067c-46.364981 0-91.314729-44.949748-91.314729-91.314729L90.752934 327.000566c0-46.364981 44.949748-73.0262 91.314729-73.0262l657.431254 0c46.364981 0 91.314729 26.66122 91.314729 73.0262L930.812621 801.801339 930.812621 801.801339zM660.053987 574.012356C642.435725 563.390437 460.595236 463.492216 450.269054 457.339076c-12.898775-7.671727-25.922393 2.108011-25.922393 15.258519L424.346661 706.534602c0 14.458293 14.415314 21.496593 25.3739 15.131629 15.005762-8.682753 197.645452-109.213377 210.333426-117.010971C671.434176 597.657892 671.603021 581.0087 660.053987 574.012356L660.053987 574.012356z" fill="#ef71af" p-id="20071"></path></svg>