<?xml version="1.0" standalone="no"?><!DOCTYPE svg PUBLIC "-//W3C//DTD SVG 1.1//EN" "http://www.w3.org/Graphics/SVG/1.1/DTD/svg11.dtd"><svg t="1780842977937" class="icon" viewBox="0 0 1024 1024" version="1.1" xmlns="http://www.w3.org/2000/svg" p-id="17130" xmlns:xlink="http://www.w3.org/1999/xlink" width="200" height="200"><path d="M484.227 657.771c20.548 20.549 39.306 20.36 59.666 0 0 0 255.729-223.277 255.729-269.567 0-20.96-15.114-50-42.729-50H624.547v-215.69c0-32.39-26.256-58.646-58.646-58.646H458.005c-32.389 0-58.645 26.256-58.645 58.646v215.69H266.224c-27.613 0-41.938 30.79-41.938 50 0 42.29 259.941 269.567 259.941 269.567z" fill="#ffffff" p-id="17131"></path><path d="M910.425 639.98H681.308c-33.33 58.008-95.906 97.074-167.607 97.074s-134.278-39.066-167.607-97.074h-232.61c-27.543 0-49.871 24.821-49.871 55.439v208.698c0 30.618 22.328 55.439 49.871 55.439h796.942c27.542 0 49.871-24.821 49.871-55.439V695.42c-0.001-30.618-22.33-55.44-49.872-55.44zM693.62 895.682c-17.673 0-32-14.327-32-32 0-17.672 14.327-31.999 32-31.999 17.672 0 31.999 14.327 31.999 31.999 0 17.672-14.327 32-31.999 32z m128.062 0c-17.673 0-32-14.327-32-32 0-17.672 14.327-31.999 32-31.999 17.672 0 31.999 14.327 31.999 31.999 0 17.672-14.327 32-31.999 32z" fill="#ffffff" p-id="17132"></path></svg>