<?xml version="1.0" standalone="no"?><!DOCTYPE svg PUBLIC "-//W3C//DTD SVG 1.1//EN" "http://www.w3.org/Graphics/SVG/1.1/DTD/svg11.dtd"><svg t="1781106729502" class="icon" viewBox="0 0 1024 1024" version="1.1" xmlns="http://www.w3.org/2000/svg" p-id="49725" xmlns:xlink="http://www.w3.org/1999/xlink" width="200" height="200"><path d="M399.872 908.288H199.68c-43.008 0-78.336-35.328-78.336-78.336v-223.232c0-10.752 8.704-19.456 19.456-19.456s19.456 8.704 19.456 19.456v223.232c0 21.504 17.408 38.912 38.912 38.912H399.36c10.752 0 19.456 8.704 19.456 19.456s-8.192 19.968-18.944 19.968zM830.464 908.288h-211.968c-10.752 0-19.456-8.704-19.456-19.456s8.704-19.456 19.456-19.456h211.968c21.504 0 38.912-17.408 38.912-38.912v-223.232c0-10.752 8.704-19.456 19.456-19.456s19.456 8.704 19.456 19.456v223.232c0.512 42.496-34.816 77.824-77.824 77.824zM140.8 407.04c-10.752 0-19.456-8.704-19.456-19.456V199.168c0-43.008 35.328-78.336 78.336-78.336h200.704c10.752 0 19.456 8.704 19.456 19.456s-8.704 19.456-19.456 19.456H199.68c-21.504 0-38.912 17.408-38.912 38.912v188.416c-0.512 11.264-9.216 19.968-19.968 19.968zM888.832 404.48c-10.752 0-19.456-8.704-19.456-19.456V199.168c0-21.504-17.408-38.912-38.912-38.912h-211.968c-10.752 0-19.456-8.704-19.456-19.456s8.704-19.456 19.456-19.456h211.968c43.008 0 78.336 35.328 78.336 78.336v185.856c0 10.24-8.704 18.944-19.968 18.944z" fill="#707070" p-id="49726"></path><path d="M907.776 524.288H122.368c-10.752 0-19.456-8.704-19.456-19.456s8.704-19.456 19.456-19.456h785.408c10.752 0 19.456 8.704 19.456 19.456s-8.704 19.456-19.456 19.456z" fill="#707070" p-id="49727"></path></svg>