<?xml version="1.0" standalone="no"?><!DOCTYPE svg PUBLIC "-//W3C//DTD SVG 1.1//EN" "http://www.w3.org/Graphics/SVG/1.1/DTD/svg11.dtd"><svg t="1781106467748" class="icon" viewBox="0 0 1024 1024" version="1.1" xmlns="http://www.w3.org/2000/svg" p-id="43819" xmlns:xlink="http://www.w3.org/1999/xlink" width="200" height="200"><path d="M506.302 146.286A234.057 234.057 0 0 1 623.184 583.24a446.903 446.903 0 0 1 258.706 202.02c36.572-5.046 70.876-7.533 103.132-7.533a29.257 29.257 0 1 1 0 58.514c-116.297 0-265.07 35.401-445.733 106.496a87.771 87.771 0 0 1-64.073 0.073C292.871 871.643 144.027 836.242 29.264 836.242a29.257 29.257 0 1 1 0-58.514c29.477 0 60.709 2.194 93.916 6.363a446.61 446.61 0 0 1 263.753-202.459 234.057 234.057 0 0 1 119.442-435.346z m-4.17 475.94c-125.44 0-245.76 69.925-320.292 171.155 92.16 17.334 196.974 49.005 314.514 94.939a29.257 29.257 0 0 0 21.431 0c112.201-44.178 213.065-75.118 302.812-92.891-72.924-102.4-192.073-173.203-318.464-173.203z m4.17-417.426a175.543 175.543 0 1 0 0 351.086 175.543 175.543 0 0 0 0-351.086z" fill="#ef71af" p-id="43820"></path></svg>