<?xml version="1.0" standalone="no"?><!DOCTYPE svg PUBLIC "-//W3C//DTD SVG 1.1//EN" "http://www.w3.org/Graphics/SVG/1.1/DTD/svg11.dtd"><svg class="icon" width="200px" height="200.00px" viewBox="0 0 1024 1024" version="1.1" xmlns="http://www.w3.org/2000/svg"><path d="M832 499.2l-115.2 115.2H704l-38.4-38.4c-6.4 0-6.4-6.4 0-12.8L780.8 448c51.2-51.2 57.6-147.2 0-204.8S633.6 192 576 243.2l-44.8 44.8 44.8 44.8c0 6.4 0 12.8-6.4 12.8l-115.2 12.8-44.8 6.4c-6.4 0-6.4 0-6.4-6.4l6.4-44.8 12.8-115.2c0-6.4 6.4-6.4 12.8-6.4l44.8 44.8 44.8-44.8c83.2-83.2 224-83.2 307.2 0s83.2 224 0 307.2zM620.8 665.6l-19.2 160c0 6.4-6.4 6.4-12.8 6.4l-44.8-44.8-44.8 44.8c-83.2 83.2-224 83.2-307.2 0S108.8 608 192 524.8l115.2-115.2H320l38.4 38.4c6.4 0 6.4 6.4 0 12.8L243.2 576c-51.2 51.2-57.6 147.2 0 204.8s153.6 51.2 204.8 0l51.2-51.2-51.2-44.8c-6.4-6.4 0-12.8 6.4-12.8l160-19.2c6.4 0 6.4 6.4 6.4 12.8z" fill="#d4237a" /></svg>