<?xml version="1.0" standalone="no"?><!DOCTYPE svg PUBLIC "-//W3C//DTD SVG 1.1//EN" "http://www.w3.org/Graphics/SVG/1.1/DTD/svg11.dtd"><svg t="1781105941513" class="icon" viewBox="0 0 1024 1024" version="1.1" xmlns="http://www.w3.org/2000/svg" p-id="15886" xmlns:xlink="http://www.w3.org/1999/xlink" width="200" height="200"><path d="M292.571429 585.142857a36.571429 36.571429 0 0 1 36.571428-36.571428h365.714286a36.571429 36.571429 0 0 1 36.571428 36.571428v182.857143a36.571429 36.571429 0 0 1-36.571428 36.571429H329.142857a36.571429 36.571429 0 0 1-36.571428-36.571429v-182.857143z m73.142857 36.571429v109.714285h292.571428v-109.714285h-292.571428zM365.714286 256a36.571429 36.571429 0 0 0-73.142857 0v128a36.571429 36.571429 0 1 0 73.142857 0V256zM475.428571 219.428571a36.571429 36.571429 0 0 1 36.571429 36.571429v128a36.571429 36.571429 0 1 1-73.142857 0V256a36.571429 36.571429 0 0 1 36.571428-36.571429zM658.285714 256a36.571429 36.571429 0 1 0-73.142857 0v128a36.571429 36.571429 0 1 0 73.142857 0V256z" p-id="15887" fill="#ef71af"></path><path d="M146.285714 146.285714a73.142857 73.142857 0 0 1 73.142857-73.142857h460.288A73.142857 73.142857 0 0 1 731.428571 94.573714L856.283429 219.428571A73.142857 73.142857 0 0 1 877.714286 271.140571V877.714286a73.142857 73.142857 0 0 1-73.142857 73.142857H219.428571a73.142857 73.142857 0 0 1-73.142857-73.142857V146.285714z m533.430857 0H219.428571v731.428572h585.142858V271.140571L679.716571 146.285714z" p-id="15888" fill="#ef71af"></path></svg>