<?xml version="1.0" standalone="no"?><!DOCTYPE svg PUBLIC "-//W3C//DTD SVG 1.1//EN" "http://www.w3.org/Graphics/SVG/1.1/DTD/svg11.dtd"><svg t="1781106379976" class="icon" viewBox="0 0 1024 1024" version="1.1" xmlns="http://www.w3.org/2000/svg" p-id="39458" xmlns:xlink="http://www.w3.org/1999/xlink" width="200" height="200"><path d="M512 164a36 36 0 0 1-36-36v-32a36 36 0 0 1 72 0v32a36 36 0 0 1-36 36zM512 964a36 36 0 0 1-36-36v-32a36 36 0 0 1 72 0v32a36 36 0 0 1-36 36zM928 548h-32a36 36 0 0 1 0-72h32a36 36 0 0 1 0 72zM128 548h-32a36 36 0 0 1 0-72h32a36 36 0 0 1 0 72zM783.52 276.48c-9.2 0-18.44-3.52-25.44-10.56-14.04-14.04-14.04-36.84 0-50.92l22.64-22.64c14.04-14.04 36.84-14.04 50.92 0 14.04 14.04 14.04 36.84 0 50.92l-22.64 22.64a35.864 35.864 0 0 1-25.44 10.56zM217.84 842.16c-9.2 0-18.44-3.52-25.44-10.56-14.04-14.04-14.04-36.84 0-50.92l22.64-22.64c14.04-14.04 36.84-14.04 50.92 0s14.04 36.84 0 50.92l-22.64 22.64a35.864 35.864 0 0 1-25.44 10.56zM806.16 842.16c-9.2 0-18.44-3.52-25.44-10.56l-22.64-22.64a36.044 36.044 0 0 1 0-50.92c14.04-14.04 36.84-14.08 50.92 0l22.64 22.64a36.044 36.044 0 0 1 0 50.92 35.864 35.864 0 0 1-25.44 10.56zM240.48 276.48c-9.2 0-18.44-3.52-25.44-10.56l-22.64-22.64a36.044 36.044 0 0 1 0-50.92c14.04-14.04 36.84-14.08 50.92 0l22.64 22.64a36.044 36.044 0 0 1 0 50.92 35.864 35.864 0 0 1-25.44 10.56zM512 804c-161 0-292-131-292-292s131-292 292-292 292 131 292 292-131 292-292 292z m0-512c-121.32 0-220 98.68-220 220s98.68 220 220 220 220-98.68 220-220-98.68-220-220-220z" p-id="39459" fill="#ef71af"></path></svg>