<?xml version="1.0" standalone="no"?><!DOCTYPE svg PUBLIC "-//W3C//DTD SVG 1.1//EN" "http://www.w3.org/Graphics/SVG/1.1/DTD/svg11.dtd"><svg t="1781105732664" class="icon" viewBox="0 0 1024 1024" version="1.1" xmlns="http://www.w3.org/2000/svg" p-id="6196" xmlns:xlink="http://www.w3.org/1999/xlink" width="200" height="200"><path d="M352 88V192h-48V88a24 24 0 0 1 48 0zM304 240h48v56a24 24 0 0 1-48 0z m368-48v48h48v-48z" fill="#ef71af" p-id="6197"></path><path d="M960 256v640a64 64 0 0 1-64 64H128a64 64 0 0 1-64-64V256a64 64 0 0 1 64-64h544v48H128a16 16 0 0 0-16 16v640a16 16 0 0 0 16 16h768a16 16 0 0 0 16-16V256a16 16 0 0 0-16-16H720v-48h176a64 64 0 0 1 64 64z" fill="#ef71af" p-id="6198"></path><path d="M936 400h-832a24 24 0 0 0 0 48h832a24 24 0 0 0 0-48zM720 88v208a24 24 0 0 1-48 0v-208a24 24 0 0 1 48 0z" fill="#ef71af" p-id="6199"></path><path d="M737.28 567.04a16 16 0 0 1 0 22.72L499.68 827.36a16 16 0 0 1-22.56 0l-158.4-158.4a16 16 0 0 1 22.56-22.72l147.2 147.2 226.24-226.4a16 16 0 0 1 22.56 0z" fill="#ef71af" p-id="6200"></path></svg>