<?xml version="1.0" standalone="no"?><!DOCTYPE svg PUBLIC "-//W3C//DTD SVG 1.1//EN" "http://www.w3.org/Graphics/SVG/1.1/DTD/svg11.dtd"><svg t="1780843021108" class="icon" viewBox="0 0 1024 1024" version="1.1" xmlns="http://www.w3.org/2000/svg" p-id="18243" xmlns:xlink="http://www.w3.org/1999/xlink" width="200" height="200"><path d="M774.981818 570.181818c23.272727 0 39.563636 2.327273 60.509091 9.309091V286.254545C835.490909 204.8 768 139.636364 686.545455 139.636364h-418.909091C183.854545 139.636364 116.363636 204.8 116.363636 286.254545v418.909091c0 81.454545 67.490909 146.618182 148.945455 146.618182H558.545455c-6.981818-18.618182-9.309091-39.563636-9.309091-60.509091 0-118.690909 102.4-221.090909 225.745454-221.090909m-367.709091 90.763637c-11.636364 0-23.272727-11.636364-23.272727-20.945455V353.745455c0-11.636364 11.636364-20.945455 23.272727-20.945455 6.981818 0 9.309091 2.327273 13.963637 6.981818l193.163636 139.636364c6.981818 4.654545 9.309091 11.636364 9.309091 18.618182 0 9.309091-4.654545 13.963636-9.309091 18.618181l-193.163636 139.636364c-2.327273 2.327273-9.309091 4.654545-13.963637 4.654546m367.709091-44.218182c-97.745455 0-179.2 79.127273-179.2 179.2 0 97.745455 79.127273 179.2 179.2 179.2 97.745455 0 179.2-79.127273 179.2-179.2s-79.127273-179.2-179.2-179.2m86.109091 225.745454c-9.309091 13.963636-25.6 18.618182-39.563636 9.309091l-58.181818-30.254545h-2.327273c-2.327273 0-2.327273-2.327273-4.654546-2.327273l-2.327272-2.327273-2.327273-2.327272c0-2.327273-2.327273-2.327273-2.327273-4.654546-4.654545-4.654545-4.654545-9.309091-4.654545-11.636364v-60.50909c0-16.290909 11.636364-30.254545 30.254545-30.254546 16.290909 0 30.254545 11.636364 30.254546 30.254546v41.890909l46.545454 20.945454c11.636364 6.981818 16.290909 25.6 9.309091 41.890909" fill="#ffffff" p-id="18244"></path></svg>