<?xml version="1.0" standalone="no"?><!DOCTYPE svg PUBLIC "-//W3C//DTD SVG 1.1//EN" "http://www.w3.org/Graphics/SVG/1.1/DTD/svg11.dtd"><svg t="1781106213738" class="icon" viewBox="0 0 1024 1024" version="1.1" xmlns="http://www.w3.org/2000/svg" p-id="30329" xmlns:xlink="http://www.w3.org/1999/xlink" width="200" height="200"><path d="M341.333333 426.666667a42.666667 42.666667 0 1 0 85.333334 0 85.333333 85.333333 0 0 1 85.333333-85.333334 42.666667 42.666667 0 1 0 0-85.333333 170.666667 170.666667 0 0 0-170.666667 170.666667z" fill="#ef71af" p-id="30330"></path><path d="M192 448a320 320 0 1 1 580.181333 186.325333c-15.616 21.76-34.218667 38.016-48.213333 50.261334l-4.522667 3.968c-15.573333 13.738667-24.192 22.613333-29.525333 33.322666-2.218667 4.48-3.498667 11.733333-3.498667 27.306667 0 3.626667-0.256 10.282667-2.816 17.877333A64 64 0 0 1 623.018667 810.666667H401.024a64 64 0 0 1-60.629333-43.605334 55.808 55.808 0 0 1-2.816-17.834666c0-15.616-1.28-22.869333-3.498667-27.306667-5.333333-10.752-13.952-19.626667-29.525333-33.365333-1.450667-1.28-2.986667-2.56-4.522667-3.968-13.994667-12.245333-32.597333-28.458667-48.213333-50.261334A318.72 318.72 0 0 1 192 448zM512 213.333333a234.666667 234.666667 0 0 0-190.848 371.242667c9.6 13.397333 20.821333 23.253333 35.584 36.266667l4.266667 3.754666c15.658667 13.781333 36.010667 32.213333 49.493333 59.264 6.997333 14.08 10.069333 28.586667 11.392 41.472h180.224c1.322667-12.885333 4.394667-27.392 11.392-41.472 13.482667-27.050667 33.834667-45.482667 49.493333-59.306666l4.266667-3.754667c14.762667-12.970667 26.026667-22.826667 35.584-36.224A234.666667 234.666667 0 0 0 512 213.333333zM384 896a42.666667 42.666667 0 0 1 42.666667-42.666667h170.666666a42.666667 42.666667 0 1 1 0 85.333334h-170.666666a42.666667 42.666667 0 0 1-42.666667-42.666667z" fill="#ef71af" p-id="30331"></path></svg>