<?xml version="1.0" standalone="no"?><!DOCTYPE svg PUBLIC "-//W3C//DTD SVG 1.1//EN" "http://www.w3.org/Graphics/SVG/1.1/DTD/svg11.dtd"><svg t="1781106293322" class="icon" viewBox="0 0 1024 1024" version="1.1" xmlns="http://www.w3.org/2000/svg" p-id="34608" xmlns:xlink="http://www.w3.org/1999/xlink" width="200" height="200"><path d="M512.157538 789.031385a39.857231 39.857231 0 0 1-37.100307-27.884308c-12.209231-27.175385-130.205538-155.648-212.598154-206.375385C161.240615 492.465231 77.587692 427.953231 78.769231 268.288 80.108308 92.317538 198.577231 0.315077 314.919385 0.315077c77.666462 0 147.928615 37.730462 197.238153 103.581538C561.230769 40.566154 632.438154 3.229538 709.553231 3.229538c116.184615 0 234.417231 90.505846 235.677538 263.483077 1.260308 163.446154-87.748923 222.680615-181.956923 285.380923-78.375385 52.066462-201.649231 182.035692-213.543384 208.738462a37.888 37.888 0 0 1-36.94277 28.041846c-0.236308 0.157538-0.472615 0.157538-0.630154 0.157539zM314.919385 79.005538c-75.145846 0-156.356923 59.392-157.380923 189.833847-0.866462 119.650462 54.665846 162.500923 146.195692 218.820923 62.542769 38.518154 156.514462 126.818462 208.817231 191.172923 54.350769-65.851077 152.024615-155.726769 206.611692-192.039385 89.481846-59.549538 148.243692-98.619077 147.298461-219.529846-0.945231-128-79.478154-185.344-156.908307-185.344-68.765538 0-129.339077 42.929231-161.870769 114.845538a39.384615 39.384615 0 1 1-71.68 0.157539c-33.634462-73.806769-93.892923-117.917538-161.083077-117.917539zM354.461538 866.461538a39.384615 39.384615 0 0 0-39.384615 39.384616v78.769231a39.384615 39.384615 0 0 0 78.769231 0v-78.769231a39.384615 39.384615 0 0 0-39.384616-39.384616zM669.538462 866.461538a39.384615 39.384615 0 0 0-39.384616 39.384616v78.769231a39.384615 39.384615 0 0 0 78.769231 0v-78.769231a39.384615 39.384615 0 0 0-39.384615-39.384616z" fill="#ef71af" p-id="34609"></path><path d="M354.461538 940.583385a39.699692 39.699692 0 0 1-13.390769-2.363077C186.840615 882.451692 67.190154 753.348923 20.952615 592.974769a39.305846 39.305846 0 1 1 75.618462-21.819077c39.305846 136.192 140.681846 245.76 271.281231 293.100308a39.384615 39.384615 0 0 1-13.39077 76.327385zM669.538462 940.583385a39.384615 39.384615 0 0 1-13.39077-76.406154c130.599385-47.340308 231.975385-156.829538 271.281231-293.100308a39.384615 39.384615 0 0 1 75.697231 21.819077c-46.237538 160.374154-165.888 289.476923-320.196923 345.245538a36.233846 36.233846 0 0 1-13.390769 2.441847z" fill="#ef71af" p-id="34610"></path></svg>