<?xml version="1.0" standalone="no"?><!DOCTYPE svg PUBLIC "-//W3C//DTD SVG 1.1//EN" "http://www.w3.org/Graphics/SVG/1.1/DTD/svg11.dtd"><svg t="1781105998464" class="icon" viewBox="0 0 1026 1024" version="1.1" xmlns="http://www.w3.org/2000/svg" p-id="17934" xmlns:xlink="http://www.w3.org/1999/xlink" width="200.390625" height="200"><path d="M921.344638 245.657855h-110.826932l-505.61596-235.954114C291.112219 3.064339 276.301247 0 262.000998 0c-38.304239 0-75.076309 21.961097-92.440898 59.24389l-88.355112 188.967581C35.750623 258.425935 2.042893 299.283791 2.042893 347.802494v572.009975c0 56.179551 45.965087 102.144638 102.144638 102.144638h817.157107c56.179551 0 102.144638-45.965087 102.144639-102.144638v-572.009975c0-56.179551-45.454364-102.144638-102.144639-102.144639zM243.104239 93.973067c4.085786-8.682294 12.257357-11.746633 18.386035-11.746633 3.064339 0 5.617955 0.510723 8.682295 2.042893l346.781047 161.899252h-444.329177l70.4798-152.195512z m698.669327 641.979053h-347.29177c-56.179551 0-102.144638-45.965087-102.144639-102.144639s45.965087-102.144638 102.144639-102.144638h347.29177v204.289277z m0-286.004988h-347.29177c-101.633915 0-183.860349 82.226434-183.86035 183.860349 0 50.561596 20.428928 96.526683 53.625936 130.234414 33.197007 33.197007 79.162095 53.625935 130.234414 53.625935h347.29177v102.144639c0 11.23591-9.193017 20.428928-20.428928 20.428928h-817.157107c-11.23591 0-20.428928-9.193017-20.428928-20.428928v-572.009975c0-11.23591 9.193017-20.428928 20.428928-20.428928h817.157107c11.23591 0 20.428928 9.193017 20.428928 20.428928v102.144638z" p-id="17935" fill="#ef71af"></path><path d="M635.339651 633.807481m-61.286783 0a61.286783 61.286783 0 1 0 122.573566 0 61.286783 61.286783 0 1 0-122.573566 0Z" p-id="17936" fill="#ef71af"></path></svg>