<?xml version="1.0" standalone="no"?><!DOCTYPE svg PUBLIC "-//W3C//DTD SVG 1.1//EN" "http://www.w3.org/Graphics/SVG/1.1/DTD/svg11.dtd"><svg t="1781106144245" class="icon" viewBox="0 0 1024 1024" version="1.1" xmlns="http://www.w3.org/2000/svg" p-id="26512" xmlns:xlink="http://www.w3.org/1999/xlink" width="200" height="200"><path d="M32.3 342.4l49.8-55.7c59.9 43 115.6 85 167 126l-56.6 62.5c-59.3-53.4-112.7-97.7-160.2-132.8z m32.2 602.5c39.1-117.2 72.6-243.2 100.6-377.9 28.6 12.4 55 22.5 79.1 30.3-31.2 125-62.5 249.7-93.7 374l-86-26.4z m5.9-857.4l50.8-51.8c43 32.6 99 78.5 168 137.7-22.1 21.5-41.7 40.7-58.6 57.6-67.1-63.1-120.5-111-160.2-143.5zM336 715.4v-58.6h555.7v57.6c-48.2 57-112.6 106-193.4 147 86.3 28.6 190.8 46.7 313.5 54.2-14.3 23.4-27.3 46.2-39.1 68.4-141.3-15.6-259.3-44.4-354-86.4-99.6 40.4-219.2 71.1-358.9 92.3-9.1-20.8-20.2-43-33.2-66.4 118.5-10.4 224.4-31.8 317.9-64-65.8-39.4-116.2-87.4-151.4-144H336z m-36.1-330.1h655.3v237.3h-64.5v-26.4H364.4v26.4h-64.5V385.3z m58.6-326.2h538.1v291h-64.5v-23.4H422.9v23.4h-64.5v-291z m5.9 480.5h133.8V442H364.4v97.6z m467.7-425.8H422.9v52.7h409.2v-52.7zM422.9 272h409.2v-52.7H422.9V272z m383.8 443.4H468.4c36.5 46.2 86.7 84.6 150.9 115.2 70.6-31.2 133.1-69.6 187.4-115.2zM560.6 539.6h133.8V442H560.6v97.6zM890.7 442H756.9v97.7h133.8V442z" fill="#ef71af" p-id="26513"></path></svg>