<?xml version="1.0" standalone="no"?><!DOCTYPE svg PUBLIC "-//W3C//DTD SVG 1.1//EN" "http://www.w3.org/Graphics/SVG/1.1/DTD/svg11.dtd"><svg t="1781106405290" class="icon" viewBox="0 0 1024 1024" version="1.1" xmlns="http://www.w3.org/2000/svg" p-id="40576" xmlns:xlink="http://www.w3.org/1999/xlink" width="200" height="200"><path d="M369.438609 539.954679c0 0 0 130.227993 143.381571 130.227993 143.407154 0 143.407154-130.227993 143.407154-130.227993S518.526135 665.834644 369.438609 539.954679zM775.93574 486.896252c0-145.30948-117.806079-263.111466-263.11556-263.111466-145.3279 0-263.130909 117.801986-263.130909 263.111466 0 71.191412 28.297486 135.639237 74.140581 183.043896 20.846794 18.754133 43.582611 35.307134 68.604494 48.327682 13.603833 7.040347 28.619828 14.160511 44.360324 20.600177 24.069185 7.203052 49.590442 11.17655 76.025511 11.17655C658.12966 750.043534 775.93574 632.236432 775.93574 486.896252zM512.82018 710.574614c-123.496685 0-223.660966-100.165304-223.660966-223.678362 0-123.508965 100.165304-223.61594 223.660966-223.61594 123.513058 0 223.64664 100.106975 223.64664 223.61594C736.466819 610.40931 636.333238 710.574614 512.82018 710.574614zM847.69304 404.320559C810.672892 253.762541 674.765549 142.105508 512.82018 142.105508c-161.89318 0-297.691029 111.526049-334.794066 262.000156 0 0-92.877317 14.680351-88.772836 108.10002 4.117784 93.394087 102.066607 99.07446 102.066607 99.07446 1.178849 2.988054 21.769816-2.90926 29.163203-4.157693-15.263635-37.045731-23.756053-77.631078-23.756053-120.225175 0-174.555571 141.532457-316.061422 316.093145-316.061422 174.555571 0 316.060399 141.505851 316.060399 316.061422 0 139.306766-90.078575 257.493515-215.164454 299.565726-8.046257 2.746554-16.525372-0.895393-16.525372-0.895393s-21.203928-3.968381-47.784306 3.535523c-13.077853 3.751441-18.700921 17.689894-17.916045 29.925566 0.979304 14.56574 6.496971 25.031093 21.720697 27.344788 19.597337 3.071965 47.458895 6.54916 57.976436-14.407128 2.856048-5.681396 5.953595-16.252149 12.641925-18.511609 96.655364-32.861432 174.013219-107.417475 210.710003-202.201212 0 0 97.414657-11.418051 100.270704-101.223403C937.687704 420.250366 847.69304 404.320559 847.69304 404.320559z" fill="#ef71af" p-id="40577"></path></svg>