<?xml version="1.0" standalone="no"?><!DOCTYPE svg PUBLIC "-//W3C//DTD SVG 1.1//EN" "http://www.w3.org/Graphics/SVG/1.1/DTD/svg11.dtd"><svg class="icon" width="200px" height="200.00px" viewBox="0 0 1024 1024" version="1.1" xmlns="http://www.w3.org/2000/svg"><path d="M469.998933 139.042133c84.992 0 160.597333 74.24 160.597334 159.726934 0 85.504-75.605333 161.723733-160.597334 161.723733s-159.8464-76.219733-159.8464-161.723733c0-85.504 74.837333-159.744 159.8464-159.744z m14.626134 729.207467H155.869867v-41.915733c0.170667-172.987733 145.646933-318.446933 317.627733-318.2592l5.3248 0.0512c144.042667-6.263467 240.349867-146.2784 190.6176-282.385067-49.698133-136.157867-216.644267-184.234667-330.530133-95.232-113.783467 89.002667-108.612267 263.662933 10.274133 345.668267C201.728 528.827733 102.9632 668.928 102.4 826.333867v65.399466c0 16.520533 13.312 29.866667 29.696 29.866667h352.529067a30.208 30.208 0 0 0 30.122666-30.293333c0-16.725333-13.482667-23.313067-30.122666-23.313067v0.256z" fill="#ea9518" /><path d="M865.467733 569.668267a26.8288 26.8288 0 0 0-38.2976 3.4816 28.125867 28.125867 0 0 0 3.413334 39.082666c63.5392 54.4256 71.799467 151.0912 18.432 215.927467-53.3504 64.8192-148.138667 73.250133-211.6608 18.807467-63.556267-54.442667-71.799467-151.108267-18.449067-215.927467 5.597867-6.826667 11.776-13.1072 18.432-18.824533a28.074667 28.074667 0 0 0 3.293867-39.168 27.1872 27.1872 0 0 0-38.365867-3.3792c-86.664533 74.1376-97.9968 205.9264-25.309867 294.331733 72.669867 88.405333 201.847467 99.959467 288.512 25.821867 86.664533-74.154667 97.9968-205.9264 25.309867-294.331734a206.762667 206.762667 0 0 0-25.309867-25.821866" fill="#ea9518" /><path d="M716.8 722.961067c0 15.445333 11.4688 27.972267 25.6 27.972266s25.6-12.526933 25.6-27.972266V505.838933c0-15.445333-11.4688-27.972267-25.6-27.972266s-25.6 12.526933-25.6 27.972266v217.122134z" fill="#ea9518" /></svg>