<?xml version="1.0" standalone="no"?><!DOCTYPE svg PUBLIC "-//W3C//DTD SVG 1.1//EN" "http://www.w3.org/Graphics/SVG/1.1/DTD/svg11.dtd"><svg t="1781105767681" class="icon" viewBox="0 0 1024 1024" version="1.1" xmlns="http://www.w3.org/2000/svg" p-id="7523" xmlns:xlink="http://www.w3.org/1999/xlink" width="200" height="200"><path d="M686.1 54.6H338.7c-91.9 0-166.7 74.8-166.7 166.7v568.1c0 91.9 74.8 166.7 166.7 166.7h347.4c46 0 87.6-18.7 117.8-48.9 30.2-30.2 48.9-71.8 48.9-117.8V221.2c0-91.9-74.8-166.6-166.7-166.6zM820 789.4c0 73.8-60.1 133.9-133.9 133.9H338.7c-73.9 0-133.9-60.1-133.9-133.9V221.2c0-73.8 60.1-133.9 133.9-133.9h347.4C760 87.3 820 147.4 820 221.2v568.2z" fill="#ef71af" p-id="7524"></path><path d="M749.9 160.1h-475v305.5h475V160.1z m-32.7 272.8H307.6V192.8h409.6v240.1zM385.5 623H350v55.9h-55.9v35.5H350v55.9h35.5v-55.9h55.9v-35.5h-55.9z" fill="#ef71af" p-id="7525"></path><path d="M726.9 637.9m-54.2 0a54.2 54.2 0 1 0 108.4 0 54.2 54.2 0 1 0-108.4 0Z" fill="#ef71af" p-id="7526"></path><path d="M619.8 756.5m-40 0a40 40 0 1 0 80 0 40 40 0 1 0-80 0Z" fill="#ef71af" p-id="7527"></path></svg>